# xmcd
#
# Track frame offsets:
#	150
#	22263
#	39750
#	53928
#	71360
#	89329
#	114227
#	129094
#	142371
#	156840
#	171944
#	183317
#	205046
#	228484
#	250205
#	267682
#
# Disc length: 3739 seconds
#
# Revision: 0
# Processed by: cddbd v1.5.1PL2 Copyright (c) Steve Scherf et al.
# Submitted via: FairStars CD Ripper 1.01
#
DISCID=e20e9910
DTITLE=John Vandiver - I Found A Dream
DYEAR=1984
DGENRE=Blues
TTITLE0=Sweet Home Chicago
TTITLE1=Goin' To German'
TTITLE2=Comin' Home
TTITLE3=Saint James Infirmary
TTITLE4=Mr. Jelly Roll Baker
TTITLE5=Louise
TTITLE6=Raise Your Mind
TTITLE7=I Found a Dream
TTITLE8=Winnie the Wailer
TTITLE9=Against the Law
TTITLE10=Chicken Fried Steak
TTITLE11=Country Girl
TTITLE12=It's Lonely at the Top
TTITLE13=Just Like a Woman
TTITLE14=Yonder Comes the Blues
TTITLE15=Cakewalk Into Town
EXTD=
EXTT0=\n
EXTT1=
EXTT2=
EXTT3=
EXTT4=
EXTT5=
EXTT6=
EXTT7=
EXTT8=
EXTT9=
EXTT10=
EXTT11=
EXTT12=
EXTT13=
EXTT14=
EXTT15=
PLAYORDER=
